<svg width="40" height="40" viewBox="0 0 40 40" fill="none" xmlns="http://www.w3.org/2000/svg">
<path d="M26.9833 3.33325H13.0167C6.95 3.33325 3.33334 6.94992 3.33334 13.0166V26.9666C3.33334 33.0499 6.95 36.6666 13.0167 36.6666H26.9667C33.0333 36.6666 36.65 33.0499 36.65 26.9833V13.0166C36.6667 6.94992 33.05 3.33325 26.9833 3.33325ZM16.5667 22.1166C15.4333 23.8166 13.8667 25.1999 12.0333 26.1166C11.8667 26.1999 11.6667 26.2499 11.4833 26.2499C11.0167 26.2499 10.5833 25.9999 10.3667 25.5666C10.05 24.9499 10.3 24.1999 10.9333 23.8833C12.3833 23.1666 13.6167 22.0666 14.5 20.7333C14.8 20.2833 14.8 19.7166 14.5 19.2666C13.6 17.9333 12.3667 16.8333 10.9333 16.1166C10.3 15.8166 10.05 15.0666 10.3667 14.4333C10.6667 13.8166 11.4167 13.5666 12.0333 13.8833C13.8667 14.7999 15.4333 16.1833 16.5667 17.8833C17.4333 19.1666 17.4333 20.8333 16.5667 22.1166ZM28.3333 26.2499H21.6667C20.9833 26.2499 20.4167 25.6833 20.4167 24.9999C20.4167 24.3166 20.9833 23.7499 21.6667 23.7499H28.3333C29.0167 23.7499 29.5833 24.3166 29.5833 24.9999C29.5833 25.6833 29.0167 26.2499 28.3333 26.2499Z" fill="white"/>
</svg>
