<svg width="40" height="40" viewBox="0 0 40 40" fill="none" xmlns="http://www.w3.org/2000/svg">
<path d="M28.3333 36.6667H11.6667C10.9833 36.6667 10.4167 36.1001 10.4167 35.4167C10.4167 34.7334 10.9833 34.1667 11.6667 34.1667H28.3333C29.0167 34.1667 29.5833 34.7334 29.5833 35.4167C29.5833 36.1001 29.0167 36.6667 28.3333 36.6667Z" fill="white"/>
<path d="M33.9167 9.1999L27.25 13.9666C26.3667 14.5999 25.1 14.2166 24.7167 13.1999L21.5667 4.7999C21.0333 3.3499 18.9833 3.3499 18.45 4.7999L15.2833 13.1832C14.9 14.2166 13.65 14.5999 12.7667 13.9499L6.1 9.18324C4.76667 8.2499 3 9.56657 3.55 11.1166L10.4833 30.5332C10.7167 31.1999 11.35 31.6332 12.05 31.6332H27.9333C28.6333 31.6332 29.2667 31.1832 29.5 30.5332L36.4333 11.1166C37 9.56657 35.2333 8.2499 33.9167 9.1999ZM24.1667 24.5832H15.8333C15.15 24.5832 14.5833 24.0166 14.5833 23.3332C14.5833 22.6499 15.15 22.0832 15.8333 22.0832H24.1667C24.85 22.0832 25.4167 22.6499 25.4167 23.3332C25.4167 24.0166 24.85 24.5832 24.1667 24.5832Z" fill="white"/>
</svg>
