<svg width="71" height="70" viewBox="0 0 71 70" fill="none" xmlns="http://www.w3.org/2000/svg">
<path d="M63.3834 31.325L59.4167 26.7167C58.6584 25.8417 58.0458 24.2083 58.0458 23.0417V18.0833C58.0458 14.9917 55.5083 12.4542 52.4167 12.4542H47.4584C46.3209 12.4542 44.6583 11.8417 43.7833 11.0833L39.175 7.11667C37.1625 5.39584 33.8667 5.39584 31.825 7.11667L27.2458 11.1125C26.3708 11.8417 24.7083 12.4542 23.5708 12.4542H18.525C15.4333 12.4542 12.8958 14.9917 12.8958 18.0833V23.0708C12.8958 24.2083 12.2833 25.8417 11.5542 26.7167L7.61668 31.3542C5.92501 33.3667 5.92501 36.6333 7.61668 38.6458L11.5542 43.2833C12.2833 44.1583 12.8958 45.7917 12.8958 46.9292V51.9167C12.8958 55.0083 15.4333 57.5458 18.525 57.5458H23.5708C24.7083 57.5458 26.3708 58.1583 27.2458 58.9167L31.8542 62.8833C33.8667 64.6042 37.1625 64.6042 39.2042 62.8833L43.8125 58.9167C44.6875 58.1583 46.3209 57.5458 47.4875 57.5458H52.4458C55.5375 57.5458 58.075 55.0083 58.075 51.9167V46.9583C58.075 45.8208 58.6875 44.1583 59.4459 43.2833L63.4125 38.675C65.1042 36.6625 65.1042 33.3375 63.3834 31.325ZM49.15 35L45.7375 45.3833C45.3 47.1042 43.4625 48.5042 41.5958 48.5042H36.2C35.2667 48.5042 33.9542 48.1833 33.3708 47.6L29.0833 44.2458C28.9958 46.1125 28.15 46.9 26.0792 46.9H24.6792C22.5208 46.9 21.6458 46.0542 21.6458 44.0125V30.0708C21.6458 28.0292 22.5208 27.1833 24.6792 27.1833H26.1083C28.2667 27.1833 29.1417 28.0292 29.1417 30.0708V31.1208L34.8 22.7208C35.3833 21.8167 36.8708 21.175 38.125 21.6708C39.4958 22.1375 40.3708 23.6542 40.0792 24.9958L39.3792 29.5458C39.3208 29.9542 39.4083 30.3333 39.6708 30.625C39.9042 30.8875 40.2542 31.0625 40.6334 31.0625H46.3208C47.4292 31.0625 48.3625 31.5 48.9167 32.2875C49.4125 33.0458 49.5 34.0083 49.15 35Z" fill="white"/>
</svg>
