<svg width="71" height="70" viewBox="0 0 71 70" fill="none" xmlns="http://www.w3.org/2000/svg">
<path d="M64.6667 37.5083C64.6667 44.1875 61.225 50.1083 55.9167 53.8417L52.0083 62.4459C51.1042 64.4 48.4792 64.7792 47.1083 63.1167L42.7917 57.925C37.3667 57.925 32.3792 56.0875 28.5875 53.025L30.3375 50.9542C43.8125 49.9333 54.4583 39.2584 54.4583 26.25C54.4583 24.0333 54.1375 21.8458 53.5542 19.7458C60.175 23.2458 64.6667 29.8958 64.6667 37.5083Z" fill="white"/>
<path d="M48.0417 17.7041C44.6292 10.7041 37.0167 5.83331 28.2083 5.83331C16.1333 5.83331 6.33334 14.9625 6.33334 26.25C6.33334 32.9291 9.77501 38.85 15.0833 42.5833L18.9917 51.1875C19.8958 53.1416 22.5208 53.4916 23.8917 51.8583L25.4958 49.9333L28.2083 46.6666C40.2833 46.6666 50.0833 37.5375 50.0833 26.25C50.0833 23.1875 49.3542 20.3 48.0417 17.7041ZM35.5 28.4375H20.9167C19.7208 28.4375 18.7292 27.4458 18.7292 26.25C18.7292 25.0541 19.7208 24.0625 20.9167 24.0625H35.5C36.6958 24.0625 37.6875 25.0541 37.6875 26.25C37.6875 27.4458 36.6958 28.4375 35.5 28.4375Z" fill="white"/>
</svg>
