<svg width="71" height="70" viewBox="0 0 71 70" fill="none" xmlns="http://www.w3.org/2000/svg">
<path d="M53 37.9167C44.95 37.9167 38.4167 44.45 38.4167 52.5C38.4167 60.55 44.95 67.0834 53 67.0834C61.05 67.0834 67.5833 60.55 67.5833 52.5C67.5833 44.45 61.05 37.9167 53 37.9167ZM50.55 56.2042C51.2792 56.9334 51.2792 58.1292 50.55 58.8875C50.1708 59.2667 49.7042 59.4417 49.2083 59.4417C48.7125 59.4417 48.2458 59.2667 47.8667 58.8875L42.8208 53.8417C42.0917 53.1125 42.0917 51.9167 42.8208 51.1584L47.8667 46.1125C48.5958 45.3834 49.7917 45.3834 50.55 46.1125C51.2792 46.8417 51.2792 48.0375 50.55 48.7959L46.8458 52.5L50.55 56.2042ZM63.15 53.8417L58.1042 58.8875C57.725 59.2667 57.2583 59.4417 56.7625 59.4417C56.2667 59.4417 55.8 59.2667 55.4208 58.8875C54.6917 58.1584 54.6917 56.9625 55.4208 56.2042L59.1542 52.5L55.45 48.7959C54.7208 48.0667 54.7208 46.8709 55.45 46.1125C56.1792 45.3834 57.375 45.3834 58.1333 46.1125L63.1792 51.1584C63.8792 51.9167 63.8792 53.0834 63.15 53.8417Z" fill="white"/>
<path d="M61.75 20.4167V33.4542C61.75 34.475 60.7583 35.175 59.825 34.825C56.5875 33.5709 52.9708 33.1625 49.1792 33.9209C41.5958 35.4375 35.5583 41.65 34.3042 49.2917C33.5458 53.9584 34.4792 58.3625 36.6083 61.95C37.1917 62.9417 36.4917 64.1667 35.3542 64.1667H23.8333C13.625 64.1667 9.25 58.3334 9.25 49.5834V20.4167C9.25 12.6584 12.6917 7.20419 20.5958 6.06669C21.4417 5.95002 22.2 6.62086 22.2292 7.49586L22.3167 10.4417C22.4042 15.1084 26.3417 18.9584 31.0667 18.9584H39.875C44.6875 18.9584 48.625 15.0209 48.625 10.2084V7.49586C48.625 6.62086 49.3833 5.92086 50.2292 6.03752C58.25 7.11669 61.75 12.6 61.75 20.4167Z" fill="white"/>
<path d="M44.25 8.74998V10.2083C44.25 12.6 42.2667 14.5833 39.875 14.5833H31.0375C28.675 14.5833 26.7208 12.6875 26.6625 10.325L26.6333 8.83748C26.575 7.17498 27.8875 5.83331 29.55 5.83331H41.3333C42.9375 5.83331 44.25 7.14581 44.25 8.74998Z" fill="white"/>
</svg>
