<svg width="30" height="30" viewBox="0 0 30 30" fill="none" xmlns="http://www.w3.org/2000/svg">
<path d="M15 30C23.265 30 30 23.265 30 15C30 6.735 23.265 -5.88792e-07 15 -1.31134e-06C6.735 -2.03389e-06 2.03389e-06 6.735 1.31134e-06 15C5.88792e-07 23.265 6.735 30 15 30ZM8.91 16.095L14.205 10.8C14.43 10.575 14.715 10.47 15 10.47C15.285 10.47 15.57 10.575 15.795 10.8L21.09 16.095C21.525 16.53 21.525 17.25 21.09 17.685C20.655 18.12 19.935 18.12 19.5 17.685L15 13.185L10.5 17.685C10.065 18.12 9.345 18.12 8.91 17.685C8.475 17.25 8.475 16.545 8.91 16.095Z" fill="#0B0B1B"/>
</svg>
