<svg width="30" height="30" viewBox="0 0 30 30" fill="none" xmlns="http://www.w3.org/2000/svg">
<path d="M15 0C6.735 0 0 6.735 0 15C0 23.265 6.735 30 15 30C23.265 30 30 23.265 30 15C30 6.735 23.265 0 15 0ZM21.09 13.905L15.795 19.2C15.57 19.425 15.285 19.53 15 19.53C14.715 19.53 14.43 19.425 14.205 19.2L8.91 13.905C8.475 13.47 8.475 12.75 8.91 12.315C9.345 11.88 10.065 11.88 10.5 12.315L15 16.815L19.5 12.315C19.935 11.88 20.655 11.88 21.09 12.315C21.525 12.75 21.525 13.455 21.09 13.905Z" fill="#0B0B1B"/>
</svg>
